<!DOCTYPE svg PUBLIC "-//W3C//DTD SVG 1.1//EN" "http://www.w3.org/Graphics/SVG/1.1/DTD/svg11.dtd">
<!-- Uploaded to: SVG Repo, www.svgrepo.com, Transformed by: SVG Repo Mixer Tools -->
<svg height="100px" width="100px" version="1.1" id="Layer_1" xmlns="http://www.w3.org/2000/svg" xmlns:xlink="http://www.w3.org/1999/xlink" viewBox="0 0 512 512" xml:space="preserve" fill="#000000">
<g id="SVGRepo_bgCarrier" stroke-width="0"/>
<g id="SVGRepo_tracerCarrier" stroke-linecap="round" stroke-linejoin="round"/>
<g id="SVGRepo_iconCarrier"> <polygon style="fill:#8AE9FF;" points="357.583,256 480.993,10.199 347.384,10.199 223.973,256 347.384,501.801 480.993,501.801 "/> <path style="fill:#248A9C;" d="M480.993,512h-133.61c-3.857,0-7.384-2.176-9.115-5.623l-123.41-245.801 c-1.445-2.879-1.445-6.274,0-9.154L338.269,5.622C339.998,2.177,343.525,0,347.384,0h133.61c3.538,0,6.822,1.834,8.681,4.845 c1.858,3.011,2.021,6.769,0.434,9.931L368.995,256l121.112,241.224c1.588,3.163,1.424,6.92-0.434,9.931 C487.814,510.166,484.53,512,480.993,512z M353.675,491.602H464.46L348.468,260.576c-1.446-2.879-1.446-6.274,0-9.154L464.46,20.398 H353.675L235.385,256L353.675,491.602z"/> <polygon style="fill:#8AE9FF;" points="164.616,256 288.026,10.199 154.417,10.199 31.006,256 154.417,501.801 288.026,501.801 "/> <g> <path style="fill:#248A9C;" d="M288.026,512h-133.61c-3.857,0-7.384-2.176-9.115-5.623L21.891,260.576 c-1.445-2.879-1.445-6.274,0-9.154L145.302,5.622C147.032,2.177,150.56,0,154.417,0h133.61c3.538,0,6.822,1.834,8.681,4.845 c1.858,3.011,2.021,6.769,0.434,9.931L176.029,256l121.112,241.224c1.588,3.163,1.424,6.92-0.434,9.931 C294.849,510.166,291.564,512,288.026,512z M160.709,491.602h110.785L155.501,260.576c-1.445-2.879-1.445-6.274,0-9.154 L271.493,20.398H160.709L42.419,256L160.709,491.602z"/> <path style="fill:#248A9C;" d="M153.405,430.746c-3.736,0-7.332-2.06-9.123-5.626l-3.241-6.456 c-2.527-5.034-0.495-11.163,4.54-13.691c5.033-2.527,11.163-0.494,13.69,4.54l3.241,6.456c2.527,5.034,0.495,11.163-4.54,13.691 C156.504,430.397,154.943,430.746,153.405,430.746z"/> <path style="fill:#248A9C;" d="M133.777,391.651c-3.735,0-7.332-2.059-9.123-5.625l-62.985-125.45 c-2.527-5.035-0.496-11.164,4.539-13.691c5.033-2.528,11.163-0.496,13.691,4.538l62.985,125.45 c2.527,5.035,0.496,11.164-4.539,13.691C136.877,391.302,135.315,391.651,133.777,391.651z"/> </g> </g>
</svg>