<!DOCTYPE svg PUBLIC "-//W3C//DTD SVG 1.1//EN" "http://www.w3.org/Graphics/SVG/1.1/DTD/svg11.dtd">

<!-- Uploaded to: SVG Repo, www.svgrepo.com, Transformed by: SVG Repo Mixer Tools -->
<svg width="25px" height="25px" viewBox="0 0 24 24" fill="none" xmlns="http://www.w3.org/2000/svg">

<g id="SVGRepo_bgCarrier" stroke-width="0"/>

<g id="SVGRepo_tracerCarrier" stroke-linecap="round" stroke-linejoin="round"/>

<g id="SVGRepo_iconCarrier">
 <path d="M2.84448 18.6377V11.3132C2.84448 10.3019 3.66431 9.48212 4.67561 9.48212H19.3246C20.3359 9.48212 21.1557 10.3019 21.1557 11.3132V18.6377C21.1557 19.649 20.3359 20.4689 19.3246 20.4689H4.67561C3.6643 20.4689 2.84448 19.649 2.84448 18.6377Z" stroke="#f6272e" stroke-width="1.7" stroke-linecap="round"/> 
 <path d="M9.27148 15.8729L9.95361 16.555C10.3303 16.9317 10.9411 16.9317 11.3179 16.555L14.7285 13.1443" stroke="#f6272e" stroke-width="1.7" stroke-linecap="round"/> 
 <path d="M4.67554 9.48204L4.67554 8.56648C4.67554 7.55517 5.49536 6.73535 6.50666 6.73535H17.4934C18.5047 6.73535 19.3245 7.55517 19.3245 8.56648V9.48204" stroke="#f6272e" stroke-width="1.7" stroke-linecap="round"/> 
 <path d="M7.03296 6.60382V5.776C7.03296 4.86162 7.77422 4.12036 8.6886 4.12036H15.3112C16.2256 4.12036 16.9668 4.86162 16.9668 5.776V6.60382" stroke="#f6272e" stroke-width="1.7" stroke-linecap="round"/> </g>

</svg>