<?xml version="1.0" encoding="iso-8859-1"?>
<!-- Uploaded to: SVG Repo, www.svgrepo.com, Generator: SVG Repo Mixer Tools -->
<svg height="800px" width="800px" version="1.1" id="Layer_1" xmlns="http://www.w3.org/2000/svg" xmlns:xlink="http://www.w3.org/1999/xlink" 
	 viewBox="0 0 512.002 512.002" xml:space="preserve">
<path style="fill:#CEE8FA;" d="M326.219,60.204H185.781l-83.852,116.6V371.63h308.141V176.805L326.219,60.204z M256.001,211.519
	c-27.529,0-49.846-22.317-49.846-49.846s22.317-49.846,49.846-49.846s49.846,22.317,49.846,49.846S283.53,211.519,256.001,211.519z"
	/>
<path style="fill:#2D527C;" d="M410.071,387.432c8.726,0,15.802-7.075,15.802-15.802V176.805c0-3.311-1.04-6.537-2.972-9.225
	L339.05,50.978c-2.971-4.129-7.745-6.577-12.83-6.577h-54.418V15.802C271.803,7.075,264.727,0,256.001,0
	c-8.726,0-15.802,7.075-15.802,15.802v28.6h-54.418c-5.085,0-9.859,2.448-12.83,6.577L89.101,167.581
	c-1.933,2.688-2.972,5.915-2.972,9.225V496.2c0,8.728,7.076,15.802,15.802,15.802h308.141c8.726,0,15.802-7.075,15.802-15.802
	v-38.778c0-8.728-7.076-15.802-15.802-15.802s-15.802,7.075-15.802,15.802v22.976H117.733v-92.964h292.338V387.432z
	 M117.733,181.896l76.149-105.891h46.317v21.954c-28.589,7.094-49.846,32.962-49.846,63.712c0,36.198,29.45,65.648,65.648,65.648
	s65.648-29.45,65.648-65.648c0-30.751-21.257-56.62-49.846-63.712V76.006h46.317l76.149,105.891V355.83H117.733V181.896z
	 M256.001,127.629c18.771,0,34.044,15.273,34.044,34.044s-15.273,34.044-34.044,34.044c-18.771,0-34.044-15.273-34.044-34.044
	S237.23,127.629,256.001,127.629z"/>
</svg>