<!DOCTYPE svg PUBLIC "-//W3C//DTD SVG 1.1//EN" "http://www.w3.org/Graphics/SVG/1.1/DTD/svg11.dtd">

<!-- Uploaded to: SVG Repo, www.svgrepo.com, Transformed by: SVG Repo Mixer Tools -->
<svg version="1.1" id="Icons" xmlns="http://www.w3.org/2000/svg" xmlns:xlink="http://www.w3.org/1999/xlink" viewBox="0 0 32 32" xml:space="preserve" width="50px" height="50px" fill="#ffd766" stroke="#ffd766">

<g id="SVGRepo_bgCarrier" stroke-width="0"/>

<g id="SVGRepo_tracerCarrier" stroke-linecap="round" stroke-linejoin="round"/>

<g id="SVGRepo_iconCarrier"> <style type="text/css"> .st0{fill:none;stroke:#000000;stroke-width:2;stroke-linecap:round;stroke-linejoin:round;stroke-miterlimit:10;} </style> <g> <circle cx="9" cy="25" r="1"/>
 <path d="M17.8,24.4C17.7,24.2,13.9,19,9,19s-8.7,5.2-8.8,5.4c-0.2,0.3-0.2,0.8,0,1.2C0.3,25.8,4.1,31,9,31s8.7-5.2,8.8-5.4 C18.1,25.2,18.1,24.8,17.8,24.4z M9,28c-1.7,0-3-1.3-3-3s1.3-3,3-3s3,1.3,3,3S10.7,28,9,28z"/> </g> <g> <circle cx="9" cy="25" r="1"/> 
 <path d="M29,8h-8.9l-2.3-3.5C17.7,4.2,17.3,4,17,4H7C5.3,4,4,5.3,4,7v11.4C5.5,17.6,7.1,17,9,17c5.8,0,10,5.6,10.4,6.3 c0.8,1,0.8,2.5,0,3.5c-0.1,0.2-0.5,0.6-1,1.3H29c1.7,0,3-1.3,3-3V11C32,9.3,30.7,8,29,8z M30,23.6L21.4,10H29c0.6,0,1,0.4,1,1V23.6 z"/> </g> </g>

</svg>