<svg xmlns="http://www.w3.org/2000/svg" xml:space="preserve" width="30px" height="30px" style="shape-rendering:geometricPrecision; text-rendering:geometricPrecision; image-rendering:optimizeQuality; fill-rule:evenodd; clip-rule:evenodd" viewBox="0 0 8 8" xmlns:xlink="http://www.w3.org/1999/xlink">
<defs>
<style type="text/css">
   
    .fil1 {fill:#5af28a}
    .fil0 {fill:#5af28a;fill-rule:#5af28a}
   
  </style>
</defs>
<g id="Layer_x0020_1">
<metadata id="CorelCorpID_0Corel-Layer"></metadata>
<g id="_489125688">
<path id="_489125832" class="fil0" d="M4 1.43757c0.70672,0 1.34674,0.286933 1.81019,0.750835 0.463272,0.46372 0.749811,1.10423 0.749811,1.81159 0,0.707362 -0.286539,1.34787 -0.749811,1.81159 -0.463449,0.463902 -1.10347,0.750835 -1.81019,0.750835 -0.70672,0 -1.34674,-0.286933 -1.81019,-0.750835 -0.463272,-0.46372 -0.749811,-1.10423 -0.749811,-1.81159 0,-0.707362 0.286539,-1.34787 0.749811,-1.81159 0.463445,-0.463902 1.10346,-0.750835 1.81019,-0.750835zm1.69706 0.863339c-0.434134,-0.434555 -1.03413,-0.703339 -1.69706,-0.703339 -0.662937,0 -1.26293,0.268783 -1.69706,0.703339 -0.434307,0.434728 -0.702937,1.03544 -0.702937,1.69909 0,0.663642 0.26863,1.26436 0.702937,1.69909 0.43413,0.434555 1.03412,0.703339 1.69706,0.703339 0.662937,0 1.26293,-0.268783 1.69706,-0.703339 0.434307,-0.434728 0.702937,-1.03544 0.702937,-1.69909 0,-0.663642 -0.26863,-1.26436 -0.702937,-1.69909z"></path>
<path id="_489126312" class="fil0" d="M5.97878 5.62526c-0.238575,0.290657 -0.539701,0.52785 -0.88276,0.690839 -0.332433,0.157953 -0.704035,0.246331 -1.09601,0.246331 -0.39198,0 -0.763583,-0.088378 -1.09602,-0.246331 -0.345138,-0.163976 -0.64785,-0.403055 -0.887106,-0.696122l-0.000192913 0.00015748c-0.027937,-0.0342244 -0.0228386,-0.084622 0.0113858,-0.112559 0.00851181,-0.00694882 0.0180236,-0.0118504 0.0279409,-0.0147717 0.30461,-0.12389 0.621925,-0.219449 0.948929,-0.283547 0.322642,-0.063248 0.655276,-0.0963425 0.995055,-0.0963425 0.33978,0 0.672417,0.0330945 0.995063,0.0963425 0.32963,0.0646142 0.649425,0.161193 0.95628,0.286539l-0.03 0.073752 0.030252 -0.0740591c0.0409016,0.0167047 0.0605118,0.0634094 0.0438071,0.104311 -0.00399213,0.00977165 -0.00969685,0.0183268 -0.016626,0.0254606zm-0.950886 0.546461c0.290276,-0.137913 0.548465,-0.332406 0.760362,-0.569193 -0.264378,-0.101189 -0.53965,-0.180697 -0.823811,-0.236398 -0.312173,-0.0611969 -0.634559,-0.0932165 -0.964441,-0.0932165 -0.329878,0 -0.652264,0.0320197 -0.964433,0.0932165 -0.284165,0.0557008 -0.559437,0.135209 -0.823815,0.236398 0.211898,0.236787 0.470087,0.43128 0.760362,0.569193 0.31135,0.147933 0.659827,0.230709 1.02789,0.230709 0.368059,0 0.716535,-0.0827756 1.02789,-0.230709z"></path>
<path id="_489126480" class="fil0" d="M5.78825 2.39748c-0.211898,-0.236787 -0.470087,-0.43128 -0.760362,-0.569193 -0.31135,-0.147933 -0.659827,-0.230709 -1.02789,-0.230709 -0.368063,0 -0.716539,0.0827756 -1.02789,0.230709 -0.290276,0.137913 -0.548465,0.332406 -0.760362,0.569193 0.264378,0.101189 0.53965,0.180697 0.823815,0.236398 0.312169,0.0611969 0.634555,0.0932165 0.964433,0.0932165 0.329882,0 0.652268,-0.0320197 0.964441,-0.0932165 0.284161,-0.0557008 0.559433,-0.135209 0.823811,-0.236398zm-0.692236 -0.713571c0.343059,0.162988 0.644185,0.400181 0.88276,0.690839 0.00692913,0.00713386 0.0126339,0.015689 0.016626,0.0254606 0.0167047,0.0409016 -0.00290551,0.0876063 -0.0438071,0.104311l-0.030252 -0.0740591 0.03 0.073752c-0.306854,0.125346 -0.62665,0.221925 -0.95628,0.286539 -0.322646,0.063248 -0.655283,0.0963425 -0.995063,0.0963425 -0.33978,0 -0.672413,-0.0330945 -0.995055,-0.0963425 -0.327004,-0.0640984 -0.644319,-0.159657 -0.948929,-0.283547 -0.00991732,-0.00292126 -0.0194291,-0.00782283 -0.0279409,-0.0147717 -0.0342244,-0.027937 -0.0393228,-0.0783346 -0.0113858,-0.112559l0.000192913 0.00015748c0.239256,-0.293067 0.541969,-0.532146 0.887106,-0.696122 0.332433,-0.157953 0.704035,-0.246331 1.09602,-0.246331 0.391976,0 0.763579,0.088378 1.09601,0.246331z"></path>
<path id="_489125808" class="fil0" d="M4 1.43757c0.392909,0 0.74424,0.294217 0.994638,0.769898 0.242264,0.460228 0.392114,1.09411 0.392114,1.79253 0,0.698421 -0.14985,1.3323 -0.392114,1.79253 -0.250398,0.475681 -0.601728,0.769898 -0.994638,0.769898 -0.392902,0 -0.74424,-0.294217 -0.994638,-0.769898 -0.24226,-0.460228 -0.39211,-1.0941 -0.39211,-1.79253 0,-0.698425 0.14985,-1.3323 0.39211,-1.79253 0.250398,-0.475681 0.601736,-0.769898 0.994638,-0.769898zm0.853386 0.844276c-0.222551,-0.42278 -0.524598,-0.684276 -0.853386,-0.684276 -0.328783,0 -0.630835,0.261496 -0.853386,0.684276 -0.230677,0.43822 -0.373362,1.04557 -0.373362,1.71815 0,0.672583 0.142685,1.27993 0.373362,1.71815 0.222551,0.42278 0.524602,0.684276 0.853386,0.684276 0.328787,0 0.630835,-0.261496 0.853386,-0.684276 0.230681,-0.438224 0.373366,-1.04557 0.373366,-1.71815 0,-0.672575 -0.142685,-1.27993 -0.373366,-1.71815z"></path>
<path id="_489125712" class="fil0" d="M1.52 3.92c-0.0441811,0 -0.08,0.0358189 -0.08,0.08 0,0.0441811 0.0358189,0.08 0.08,0.08l4.96 0c0.0441811,0 0.08,-0.0358189 0.08,-0.08 0,-0.0441811 -0.0358189,-0.08 -0.08,-0.08l-4.96 0z"></path>
</g>
<path class="fil1" d="M4 0c2.20914,0 4,1.79086 4,4 0,2.20914 -1.79086,4 -4,4 -2.20914,0 -4,-1.79086 -4,-4 0,-2.20914 1.79086,-4 4,-4zm0 0.319996c2.03241,0 3.68,1.64759 3.68,3.68 0,2.03241 -1.64759,3.68 -3.68,3.68 -2.03241,0 -3.68,-1.64759 -3.68,-3.68 0,-2.03241 1.64759,-3.68 3.68,-3.68z" id="id_105"></path>
</g>
</svg>