<!DOCTYPE svg PUBLIC "-//W3C//DTD SVG 1.1//EN" "http://www.w3.org/Graphics/SVG/1.1/DTD/svg11.dtd">

<!-- Uploaded to: SVG Repo, www.svgrepo.com, Transformed by: SVG Repo Mixer Tools -->
<svg fill="#f8f7f7" height="25px" width="25px" version="1.1" id="Capa_1" xmlns="http://www.w3.org/2000/svg" xmlns:xlink="http://www.w3.org/1999/xlink" viewBox="0 0 60 60" xml:space="preserve">

<g id="SVGRepo_bgCarrier" stroke-width="0"/>

<g id="SVGRepo_tracerCarrier" stroke-linecap="round" stroke-linejoin="round"/>

<g id="SVGRepo_iconCarrier"> <g> <path d="M45,36c-6.617,0-12,5.383-12,12s5.383,12,12,12s12-5.383,12-12S51.617,36,45,36z M45,58c-5.514,0-10-4.486-10-10 s4.486-10,10-10s10,4.486,10,10S50.514,58,45,58z"/> <path d="M51,47h-5v-5c0-0.553-0.447-1-1-1s-1,0.447-1,1v6c0,0.553,0.447,1,1,1h6c0.553,0,1-0.447,1-1S51.553,47,51,47z"/> <path d="M20,22h20V12H20V22z M23,14h14v2H23V14z M23,18h14v2H23V18z"/> <path d="M30,48c0-8.271,6.729-15,15-15c1.387,0,2.724,0.204,4,0.558V0H13H3v60h10h23.038C32.381,57.262,30,52.91,30,48z M11,58H5V2 h6V58z M18,10h24v14H18V10z"/> </g> </g>

</svg>