<svg xmlns="http://www.w3.org/2000/svg" viewBox="0 0 128 128" id="zip-file"><path fill="#00b8df" d="M104 126H24c-5.514 0-10-4.486-10-10V12c0-5.514 4.486-10 10-10h40.687a9.932 9.932 0 0 1 7.07 2.929l39.314 39.314a9.932 9.932 0 0 1 2.929 7.07V116c0 5.514-4.486 10-10 10zM24 6c-3.309 0-6 2.691-6 6v104c0 3.309 2.691 6 6 6h80c3.309 0 6-2.691 6-6V51.313a6.044 6.044 0 0 0-1.757-4.242L68.929 7.757A5.96 5.96 0 0 0 64.687 6H24z"></path><path fill="#00b8df" d="M47 112h10v6H47zM37 118h10v6H37zM47 100h10v6H47zM37 106h10v6H37zM47 88h10v6H47zM37 94h10v6H37zM47 76h10v6H47zM37 82h10v6H37zM47 64h10v6H47zM37 70h10v6H37zM56 29H40c-1.1 0-2 .9-2 2v25c0 1.1.9 2 2 2h16c1.1 0 2-.9 2-2V31c0-1.1-.9-2-2-2zm-3 16H43V34h10v11z"></path></svg>